<svg width="171" height="12" viewBox="0 0 171 12" fill="white" xmlns="http://www.w3.org/2000/svg">
<path d="M0.316278 0C0.112957 0 0 0.108499 0 0.303797V11.5226C0 11.7179 0.112957 11.8264 0.316278 11.8264H2.30431C2.50763 11.8264 2.62058 11.7179 2.62058 11.5226V7.03074H8.67504C8.87836 7.03074 8.99131 6.92224 8.99131 6.72694V4.94756C8.99131 4.75226 8.87836 4.64376 8.67504 4.64376H2.62058V2.38698H9.30759C9.51091 2.38698 9.62387 2.27848 9.62387 2.08318V0.303797C9.62387 0.108499 9.51091 0 9.30759 0H0.316278Z" fill="white"/>
<path d="M13.8089 6.61844C13.8089 9.67812 15.9325 12 19.3212 12C22.7324 12 24.856 9.67812 24.856 6.61844V0.303797C24.856 0.108499 24.7431 0 24.5397 0H22.5517C22.3484 0 22.2354 0.108499 22.2354 0.303797V6.59675C22.2354 8.41953 21.1511 9.61302 19.3212 9.61302C17.4461 9.61302 16.4295 8.35443 16.4295 6.59675V0.303797C16.4295 0.108499 16.3165 0 16.1132 0H14.1252C13.9219 0 13.8089 0.108499 13.8089 0.303797V6.61844Z" fill="white"/>
<path d="M28.7954 0C28.592 0 28.4791 0.108499 28.4791 0.303797V2.08318C28.4791 2.27848 28.592 2.38698 28.7954 2.38698H32.7262V11.5226C32.7262 11.7179 32.8392 11.8264 33.0425 11.8264H35.0305C35.2339 11.8264 35.3468 11.7179 35.3468 11.5226V2.38698H39.2777C39.481 2.38698 39.594 2.27848 39.594 2.08318V0.303797C39.594 0.108499 39.481 0 39.2777 0H28.7954Z" fill="white"/>
<path d="M43.2137 6.61844C43.2137 9.67812 45.3373 12 48.726 12C52.1372 12 54.2608 9.67812 54.2608 6.61844V0.303797C54.2608 0.108499 54.1479 0 53.9445 0H51.9565C51.7532 0 51.6402 0.108499 51.6402 0.303797V6.59675C51.6402 8.41953 50.5558 9.61302 48.726 9.61302C46.8509 9.61302 45.8343 8.35443 45.8343 6.59675V0.303797C45.8343 0.108499 45.7213 0 45.518 0H43.53C43.3266 0 43.2137 0.108499 43.2137 0.303797V6.61844Z" fill="white"/>
<path d="M59.1038 0C58.9005 0 58.7875 0.108499 58.7875 0.303797V11.5226C58.7875 11.7179 58.9005 11.8264 59.1038 11.8264H61.0918C61.2952 11.8264 61.4081 11.7179 61.4081 11.5226V8.67993H64.5709C64.6612 8.67993 64.7742 8.67993 64.9323 8.65823L66.446 11.6094C66.5363 11.7613 66.6719 11.8264 66.8526 11.8264H69.0665C69.2473 11.8264 69.3602 11.6745 69.2699 11.5226L67.327 7.94213C68.6147 7.22604 69.4958 5.88065 69.4958 4.31826C69.4958 1.86618 67.3948 0 64.6612 0H59.1038ZM61.4081 6.29295V2.38698H64.6612C66.0845 2.38698 66.8752 3.21157 66.8752 4.31826C66.8752 5.42496 66.0845 6.29295 64.6612 6.29295H61.4081Z" fill="white"/>
<path d="M74.104 0C73.9459 0 73.7878 0.1302 73.7878 0.303797V11.5226C73.7878 11.7179 73.9007 11.8264 74.104 11.8264H83.4342C83.6375 11.8264 83.7505 11.7179 83.7505 11.5226V9.76492C83.7505 9.56962 83.6375 9.46112 83.4342 9.46112H76.4083V6.90054H82.4176C82.6209 6.90054 82.7339 6.79204 82.7339 6.59675V4.86076C82.7339 4.66546 82.6209 4.55696 82.4176 4.55696H76.4083V2.34358H83.2535C83.4568 2.34358 83.5698 2.23508 83.5698 2.03978V0.303797C83.5698 0.108499 83.4568 0 83.2535 0H74.104Z" fill="white"/>
<path d="M106.339 0C106.136 0 106 0.0867992 105.932 0.238699L104.215 4.20976L102.431 8.59313H102.34L100.533 4.20976L98.7257 0.238699C98.6579 0.0867992 98.5223 0 98.3642 0H95.721C95.5177 0 95.4047 0.108499 95.4047 0.303797V11.5226C95.4047 11.7179 95.5177 11.8264 95.721 11.8264H97.6187C97.822 11.8264 97.935 11.7179 97.935 11.5226V7.22604L97.822 3.97107L97.9576 3.94937L99.81 8.44123L101.143 11.6094C101.211 11.7613 101.346 11.8264 101.504 11.8264H103.041C103.199 11.8264 103.334 11.7613 103.402 11.6094L104.803 8.44123L106.61 3.97107L106.746 3.99277L106.633 7.22604V11.5226C106.633 11.7179 106.746 11.8264 106.949 11.8264H108.937C109.14 11.8264 109.253 11.7179 109.253 11.5226V0.303797C109.253 0.108499 109.14 0 108.937 0H106.339Z" fill="white"/>
<path d="M123.969 11.5226C124.059 11.7179 124.218 11.8264 124.443 11.8264H126.59C126.793 11.8264 126.906 11.6528 126.838 11.4792L121.755 0.173599C121.71 0.0651001 121.62 0 121.461 0H118.886C118.728 0 118.638 0.0651001 118.592 0.173599L113.261 11.5226C113.193 11.7179 113.261 11.8264 113.487 11.8264H115.723C115.904 11.8264 116.04 11.7396 116.107 11.566L116.966 9.48282H123.111L123.969 11.5226ZM119.97 2.34358H120.219L122.207 7.20434H117.915L119.97 2.34358Z" fill="white"/>
<path d="M131.127 0C130.923 0 130.81 0.108499 130.81 0.303797V11.5226C130.81 11.7179 130.923 11.8264 131.127 11.8264H133.115C133.318 11.8264 133.431 11.7179 133.431 11.5226V8.67993H136.594C136.684 8.67993 136.797 8.67993 136.955 8.65823L138.469 11.6094C138.559 11.7613 138.695 11.8264 138.875 11.8264H141.089C141.27 11.8264 141.383 11.6745 141.293 11.5226L139.35 7.94213C140.638 7.22604 141.519 5.88065 141.519 4.31826C141.519 1.86618 139.418 0 136.684 0H131.127ZM133.431 6.29295V2.38698H136.684C138.107 2.38698 138.898 3.21157 138.898 4.31826C138.898 5.42496 138.107 6.29295 136.684 6.29295H133.431Z" fill="white"/>
<path d="M146.127 0C145.924 0 145.811 0.108499 145.811 0.303797V11.5226C145.811 11.7179 145.924 11.8264 146.127 11.8264H148.115C148.318 11.8264 148.431 11.7179 148.431 11.5226V7.66004L149.764 6.66184L153.898 11.6094C154.034 11.7613 154.215 11.8264 154.463 11.8264H157.174C157.377 11.8264 157.468 11.6528 157.31 11.5009L151.571 5.18626L156.971 0.325498C157.129 0.173599 157.061 0 156.858 0H154.102C153.853 0 153.65 0.0651001 153.514 0.173599L148.431 4.99096V0.303797C148.431 0.108499 148.318 0 148.115 0H146.127Z" fill="white"/>
<path d="M160.201 0C159.998 0 159.885 0.108499 159.885 0.303797V2.08318C159.885 2.27848 159.998 2.38698 160.201 2.38698H164.132V11.5226C164.132 11.7179 164.245 11.8264 164.449 11.8264H166.437C166.64 11.8264 166.753 11.7179 166.753 11.5226V2.38698H170.684C170.887 2.38698 171 2.27848 171 2.08318V0.303797C171 0.108499 170.887 0 170.684 0H160.201Z" fill="white"/>
</svg>
