<svg width="272" height="50" viewBox="0 0 272 50" fill="none" xmlns="http://www.w3.org/2000/svg">
<path d="M18.327 38L16.564 31.44H7.175L5.412 38H-0.205L8.61 9.669H15.293L24.067 38H18.327ZM8.241 27.34H15.457L11.849 13.81L8.241 27.34ZM32.6363 9.669V33.572H43.9933L43.3783 38H27.2243V9.669H32.6363ZM61.8636 22.994C63.8042 23.3493 65.3622 24.0463 66.5376 25.085C67.7402 26.1237 68.3416 27.709 68.3416 29.841C68.3416 32.793 67.3029 34.8977 65.2256 36.155C63.1482 37.385 60.2372 38 56.4926 38H47.9646V9.669H55.3856C63.2029 9.669 67.1116 12.0743 67.1116 16.885C67.1116 18.5523 66.6059 19.919 65.5946 20.985C64.5832 22.0237 63.3396 22.6933 61.8636 22.994ZM53.3766 13.646V21.313H56.6976C58.2009 21.313 59.3899 20.985 60.2646 20.329C61.1392 19.6457 61.5766 18.648 61.5766 17.336C61.5766 15.9693 61.1119 15.0127 60.1826 14.466C59.2806 13.9193 57.8592 13.646 55.9186 13.646H53.3766ZM56.5336 33.941C58.5289 33.941 60.0459 33.6403 61.0846 33.039C62.1506 32.4377 62.6836 31.3033 62.6836 29.636C62.6836 28.0233 62.1779 26.8617 61.1666 26.151C60.1826 25.4403 58.8296 25.085 57.1076 25.085H53.3766V33.941H56.5336ZM95.6713 9.464C97.2566 9.464 98.6369 9.69633 99.8123 10.161C100.988 10.5983 102.177 11.2953 103.379 12.252L101.903 13.81C100.892 13.0173 99.9079 12.4433 98.9513 12.088C97.9946 11.7327 96.9013 11.555 95.6713 11.555C94.0586 11.555 92.5553 11.9787 91.1613 12.826C89.7946 13.6733 88.6739 15.0263 87.7993 16.885C86.9519 18.7163 86.5283 21.0397 86.5283 23.855C86.5283 28.037 87.3209 31.1667 88.9063 33.244C90.4916 35.3213 92.7056 36.36 95.5483 36.36C97.7349 36.36 99.7029 35.868 101.452 34.884V24.921H95.9583L95.6713 22.871H103.871V36.155C101.193 37.6857 98.4183 38.451 95.5483 38.451C91.9676 38.451 89.1386 37.2073 87.0613 34.72C84.9839 32.2327 83.9453 28.611 83.9453 23.855C83.9453 20.7663 84.4783 18.1423 85.5443 15.983C86.6376 13.7963 88.0726 12.17 89.8493 11.104C91.6533 10.0107 93.5939 9.464 95.6713 9.464ZM119.212 25.413H113.595V38H111.135V9.915H117.941C124.61 9.915 127.945 12.457 127.945 17.541C127.945 19.5637 127.412 21.1763 126.346 22.379C125.28 23.5817 123.722 24.4427 121.672 24.962L129.38 38H126.469L119.212 25.413ZM118.269 23.404C122.97 23.404 125.321 21.4497 125.321 17.541C125.321 15.6277 124.733 14.22 123.558 13.318C122.383 12.3887 120.483 11.924 117.859 11.924H113.595V23.404H118.269ZM144.632 9.464C146.928 9.464 148.937 10.0243 150.659 11.145C152.381 12.2383 153.721 13.8783 154.677 16.065C155.634 18.2517 156.112 20.8893 156.112 23.978C156.112 27.012 155.634 29.6223 154.677 31.809C153.748 33.9683 152.422 35.622 150.7 36.77C148.978 37.8907 146.956 38.451 144.632 38.451C142.364 38.451 140.368 37.8907 138.646 36.77C136.924 35.6493 135.585 34.0093 134.628 31.85C133.672 29.6907 133.193 27.0803 133.193 24.019C133.193 20.985 133.672 18.3747 134.628 16.188C135.585 14.0013 136.924 12.334 138.646 11.186C140.396 10.038 142.391 9.464 144.632 9.464ZM144.632 11.555C141.899 11.555 139.74 12.6073 138.154 14.712C136.569 16.7893 135.776 19.8917 135.776 24.019C135.776 28.0917 136.569 31.1667 138.154 33.244C139.767 35.3213 141.926 36.36 144.632 36.36C147.448 36.36 149.634 35.335 151.192 33.285C152.75 31.2077 153.529 28.1053 153.529 23.978C153.529 19.8233 152.737 16.721 151.151 14.671C149.593 12.5937 147.42 11.555 144.632 11.555ZM181.426 29.226C181.426 32.014 180.633 34.2553 179.048 35.95C177.463 37.6173 175.18 38.451 172.201 38.451C169.194 38.451 166.898 37.6173 165.313 35.95C163.755 34.2827 162.976 32.0413 162.976 29.226V9.915H165.436V29.021C165.436 31.3717 165.983 33.1757 167.076 34.433C168.197 35.6903 169.905 36.319 172.201 36.319C174.497 36.319 176.192 35.6903 177.285 34.433C178.378 33.1483 178.925 31.3443 178.925 29.021V9.915H181.426V29.226ZM196.733 9.915C200.068 9.915 202.623 10.612 204.4 12.006C206.204 13.3727 207.106 15.4773 207.106 18.32C207.106 21.3267 206.163 23.5407 204.277 24.962C202.418 26.356 199.863 27.053 196.61 27.053H192.592V38H190.132V9.915H196.733ZM196.61 25.044C199.152 25.044 201.106 24.5383 202.473 23.527C203.84 22.5157 204.523 20.7937 204.523 18.361C204.523 16.065 203.853 14.425 202.514 13.441C201.202 12.4297 199.261 11.924 196.692 11.924H192.592V25.044H196.61Z" transform="translate(63)" fill="black"/>
<path d="M13.5 0L0 35L52 3L6 44H39.5L56 0H13.5Z" transform="translate(0 2)" fill="#6CBD45"/>
</svg>
