<svg width="19" height="18" viewBox="0 0 19 18" fill="none" xmlns="http://www.w3.org/2000/svg">
<path fill-rule="evenodd" clip-rule="evenodd" d="M14.4053 10.7986C14.0453 10.7986 13.7763 10.8886 13.5053 10.8886L10.9053 8.28056L13.0613 6.12256L15.8453 5.13356L17.9103 1.80656C17.9553 1.72367 17.9789 1.63086 17.9789 1.53656C17.9789 1.44225 17.9553 1.34944 17.9103 1.26656L16.8323 0.187557C16.7496 0.109796 16.6449 0.0594312 16.5325 0.0433257C16.4201 0.0272202 16.3055 0.0461573 16.2043 0.0975564L12.7913 2.07556L11.7133 4.95256L9.55828 7.11056L7.13031 4.49856C7.13031 4.22856 7.22027 3.95856 7.22027 3.59856C7.21272 3.05204 7.08251 2.51421 6.83923 2.02477C6.59594 1.53534 6.2458 1.10681 5.81469 0.770829C5.38359 0.434852 4.88254 0.200011 4.34851 0.0836509C3.81447 -0.0327089 3.26111 -0.0276145 2.72931 0.0985568L4.07733 1.44756C4.24266 1.61269 4.37382 1.80878 4.46338 2.02462C4.55293 2.24045 4.5991 2.47182 4.59924 2.7055C4.59938 2.93917 4.55346 3.17059 4.46417 3.38654C4.37487 3.60248 4.24393 3.79872 4.07879 3.96406C3.91366 4.12939 3.7176 4.26058 3.50177 4.35013C3.28593 4.43969 3.05454 4.48585 2.82086 4.48599C2.58718 4.48613 2.35577 4.44024 2.13983 4.35094C1.92388 4.26165 1.72765 4.13069 1.56231 3.96556L0.125301 2.70656C-0.0406749 3.3126 -0.0417544 3.95197 0.122128 4.55859C0.28601 5.1652 0.608913 5.71703 1.05749 6.15705C1.50607 6.59706 2.06404 6.90929 2.6737 7.06145C3.28336 7.21361 3.92259 7.20018 4.52533 7.02256L7.1253 9.63056L6.05029 10.7066C5.7519 10.6192 5.43534 10.6149 5.1347 10.6942C4.83406 10.7735 4.56077 10.9334 4.3443 11.1566L0.662289 14.8436C0.314914 15.16 0.102532 15.5979 0.069027 16.0666C0.0355217 16.5353 0.183465 16.9989 0.482296 17.3616C0.641672 17.5477 0.838023 17.6987 1.05883 17.805C1.27965 17.9113 1.52009 17.9706 1.76501 17.979C2.00993 17.9875 2.25394 17.945 2.48156 17.8542C2.70918 17.7634 2.91543 17.6263 3.08728 17.4516L6.85931 13.6746C7.07756 13.4542 7.23392 13.1802 7.31274 12.8802C7.39156 12.5802 7.39002 12.2648 7.30828 11.9656L8.38531 10.8866L10.9903 13.4946C10.9158 13.7884 10.8855 14.0918 10.9003 14.3946C10.9068 14.9417 11.0363 15.4803 11.2791 15.9706C11.5219 16.4609 11.872 16.8903 12.3032 17.2271C12.7345 17.5638 13.2359 17.7993 13.7704 17.9161C14.305 18.0328 14.8589 18.0278 15.3913 17.9016L14.0503 16.5516C13.7164 16.218 13.5287 15.7656 13.5284 15.2936C13.5281 14.8217 13.7153 14.369 14.0488 14.0351C14.3823 13.7011 14.8348 13.5134 15.3068 13.5131C15.7787 13.5128 16.2314 13.7 16.5653 14.0336L17.9123 15.3826C18.0553 14.844 18.073 14.2798 17.964 13.7333C17.8551 13.1868 17.6224 12.6725 17.2837 12.2299C16.9451 11.7873 16.5096 11.4282 16.0107 11.1801C15.5117 10.9319 14.9626 10.8014 14.4053 10.7986Z" fill="#4F4F4F"/>
</svg>
