<?xml version="1.0" encoding="utf-8"?><svg width="76" height="18" viewBox="0 0 76 18" xmlns="http://www.w3.org/2000/svg" xmlns:xlink="http://www.w3.org/1999/xlink"><svg width="19" height="18" viewBox="0 0 19 18" id="factory-icon" xmlns="http://www.w3.org/2000/svg"><path fill-rule="evenodd" clip-rule="evenodd" d="M10.949.985a.923.923 0 0 1-.1-.2l.037-.034.2.081.214.084c.087.034.176.063.266.087a.81.81 0 0 0 .144.035c.025 0 .049.01.073.015.024.005.049 0 .073.006.096.01.192.01.288 0 .046-.017.1-.022.148-.043.051-.022.1-.047.148-.077l.071-.048a.288.288 0 0 0 .082-.056l.175-.148v.007V.69l.012-.01.023-.02.046-.04.087-.084c.054-.056.123-.1.178-.155.055-.055.127-.09.185-.145.058-.054.134-.086.2-.133a.877.877 0 0 1 .472-.1c.039 0 .076.01.113.017.037.007.069.022.1.035a1.25 1.25 0 0 1 .685.643L14.9.75l-.037.035s-.079-.027-.2-.077l-.217-.09a3.921 3.921 0 0 0-.4-.147c-.025-.006-.049-.016-.073-.023A.582.582 0 0 1 13.9.428a1.534 1.534 0 0 0-.328-.077.706.706 0 0 0-.188.03.53.53 0 0 0-.172.105.705.705 0 0 0-.134.16l-.048.1-.022.048L13 .816V.834a.045.045 0 0 1-.007.01l-.094.21a1.08 1.08 0 0 1-.16.21 1.243 1.243 0 0 1-.209.172c-.078.047-.16.087-.245.12a.982.982 0 0 1-.512.017 1.198 1.198 0 0 1-.392-.173 1.364 1.364 0 0 1-.261-.22 1.263 1.263 0 0 1-.171-.195zM19 17.016H0v-4h1v-5l3-2v2l4-3v3l4-4v7l1-1 1-8h2l1 8 1 1v2h1v4zm-13-5H3v2h3v-2zm5 0H8v2h3v-2zm5 0h-3v2h3v-2z"/></svg><svg width="19" height="18" viewBox="0 0 19 18" id="ok-icon" x="19" xmlns="http://www.w3.org/2000/svg"><path fill-rule="evenodd" clip-rule="evenodd" d="M18.013 8.999l-1.542-2.01.345-2.493-2.354-.933-.933-2.351-2.5.345L9.004 0 6.995 1.54l-2.491-.344-.933 2.351-2.354.932.345 2.493L0 8.999l1.542 2.007-.345 2.493 2.354.932.933 2.351 2.5-.344 2.009 1.54 2.008-1.54 2.5.345.934-2.351 2.353-.953-.358-2.49 1.583-1.99zm-9.74 2.919l-3-2.473.649-.79 2.232 1.824 3.814-4.4.771.669-4.466 5.17z"/></svg><svg width="19" height="18" viewBox="0 0 19 18" id="repair-icon" x="38" xmlns="http://www.w3.org/2000/svg"><path fill-rule="evenodd" clip-rule="evenodd" d="M14.405 10.799c-.36 0-.629.09-.9.09l-2.6-2.608 2.156-2.158 2.784-.99 2.065-3.326a.566.566 0 0 0 0-.54L16.832.187a.552.552 0 0 0-.628-.09l-3.413 1.979-1.078 2.877L9.558 7.11 7.13 4.499c0-.27.09-.54.09-.9a3.649 3.649 0 0 0-4.49-3.5l1.347 1.349a1.78 1.78 0 0 1-2.515 2.518L.125 2.706a3.528 3.528 0 0 0 4.4 4.317l2.6 2.608-1.075 1.076a1.708 1.708 0 0 0-1.706.45L.662 14.844a1.83 1.83 0 0 0-.18 2.518 1.77 1.77 0 0 0 2.605.09l3.772-3.777a1.767 1.767 0 0 0 .45-1.71l1.076-1.078 2.605 2.608a3.055 3.055 0 0 0-.09.9 3.649 3.649 0 0 0 4.491 3.507l-1.34-1.35a1.78 1.78 0 0 1 2.514-2.518l1.347 1.349a3.647 3.647 0 0 0-3.507-4.584z"/></svg><svg width="19" height="18" viewBox="0 0 19 18" id="star-icon" x="57" xmlns="http://www.w3.org/2000/svg"><path fill-rule="evenodd" clip-rule="evenodd" d="M18.013 8.999l-1.542-2.01.345-2.493-2.354-.933-.933-2.351-2.5.345L9.004 0 6.995 1.54l-2.491-.344-.933 2.351-2.354.932.345 2.493L0 8.999l1.542 2.007-.345 2.493 2.354.932.933 2.351 2.5-.344 2.009 1.54 2.008-1.54 2.5.345.934-2.351 2.353-.953-.358-2.49 1.583-1.99z"/><path d="M13.5 8.056l-2.98-.588L9 5 7.48 7.468l-2.98.588 2.042 2.113L6.219 13 9 11.838 11.781 13l-.323-2.831L13.5 8.056z"/></svg></svg>