<svg width="53" height="45" viewBox="0 0 53 45" version="1.1" xmlns="http://www.w3.org/2000/svg" xmlns:xlink="http://www.w3.org/1999/xlink">
<g id="Canvas" fill="none">
<g id="money-care-icon-320">
<path fill-rule="evenodd" clip-rule="evenodd" d="M 6 36C 6 35.4477 6.44772 35 7 35L 10 35C 11.1641 35 12.1953 35.7519 13.0177 36.5185C 13.8071 37.2542 14.6087 38.2059 15.3742 39.1147C 15.442 39.1952 15.5096 39.2754 15.5768 39.3551C 16.4281 40.3641 17.2387 41.3033 18.037 41.9936C 18.8553 42.7014 19.4964 43 20 43L 31 43C 31.5171 43 31.8146 42.8337 31.9804 42.6679C 32.1556 42.4927 32.25 42.2526 32.25 42C 32.25 41.7474 32.1556 41.5073 31.9804 41.3321C 31.8146 41.1663 31.5171 41 31 41L 27 41C 26.4477 41 26 40.5523 26 40C 26 39.4477 26.4477 39 27 39L 31 39C 31.9829 39 32.8104 39.3337 33.3946 39.9179C 33.9694 40.4927 34.25 41.2526 34.25 42C 34.25 42.7474 33.9694 43.5073 33.3946 44.0821C 32.8104 44.6663 31.9829 45 31 45L 20 45C 18.7536 45 17.6447 44.2986 16.7287 43.5064C 15.7925 42.6967 14.8844 41.6359 14.0482 40.6449C 13.9864 40.5716 13.9251 40.4988 13.8641 40.4265C 13.0746 39.4897 12.3504 38.6304 11.6541 37.9815C 10.8672 37.2481 10.3359 37 10 37L 7 37C 6.44772 37 6 36.5523 6 36Z" fill="black"/>
<path fill-rule="evenodd" clip-rule="evenodd" d="M 6 36C 6 35.4477 6.44772 35 7 35L 10 35C 11.1641 35 12.1953 35.7519 13.0177 36.5185C 13.8071 37.2542 14.6087 38.2059 15.3742 39.1147C 15.442 39.1952 15.5096 39.2754 15.5768 39.3551C 16.4281 40.3641 17.2387 41.3033 18.037 41.9936C 18.8553 42.7014 19.4964 43 20 43L 31 43C 31.5171 43 31.8146 42.8337 31.9804 42.6679C 32.1556 42.4927 32.25 42.2526 32.25 42C 32.25 41.7474 32.1556 41.5073 31.9804 41.3321C 31.8146 41.1663 31.5171 41 31 41L 27 41C 26.4477 41 26 40.5523 26 40C 26 39.4477 26.4477 39 27 39L 31 39C 31.9829 39 32.8104 39.3337 33.3946 39.9179C 33.9694 40.4927 34.25 41.2526 34.25 42C 34.25 42.7474 33.9694 43.5073 33.3946 44.0821C 32.8104 44.6663 31.9829 45 31 45L 20 45C 18.7536 45 17.6447 44.2986 16.7287 43.5064C 15.7925 42.6967 14.8844 41.6359 14.0482 40.6449C 13.9864 40.5716 13.9251 40.4988 13.8641 40.4265C 13.0746 39.4897 12.3504 38.6304 11.6541 37.9815C 10.8672 37.2481 10.3359 37 10 37L 7 37C 6.44772 37 6 36.5523 6 36Z" fill="url(#paint0_linear)"/>
<path fill-rule="evenodd" clip-rule="evenodd" d="M 6 28C 6 27.4477 6.44772 27 7 27L 7 29C 6.44772 29 6 28.5523 6 28ZM 7 29L 12 29C 14.363 29 15.6669 29.471 16.47 29.973C 17.0744 30.3507 17.4009 30.7216 17.7616 31.1312C 17.9227 31.3141 18.0905 31.5047 18.2929 31.7071L 22.2929 35.7071C 22.601 36.0152 22.6716 36.3029 22.658 36.535C 22.6429 36.7918 22.5172 37.0686 22.2929 37.2929C 22.0686 37.5172 21.7918 37.6429 21.535 37.658C 21.3029 37.6716 21.0152 37.601 20.7071 37.2929L 16.7071 33.2929C 16.3166 32.9024 15.6834 32.9024 15.2929 33.2929C 14.9024 33.6834 14.9024 34.3166 15.2929 34.7071L 19.2929 38.7071C 19.9848 39.399 20.8221 39.7034 21.6525 39.6545C 22.4582 39.6071 23.1814 39.2328 23.7071 38.7071C 24.2328 38.1814 24.6071 37.4582 24.6545 36.6525C 24.7034 35.8221 24.399 34.9848 23.7071 34.2929L 19.7071 30.2929C 19.6306 30.2164 19.5362 30.1092 19.4233 29.9808C 19.028 29.5316 18.4057 28.8243 17.53 28.277C 16.3331 27.529 14.637 27 12 27L 7 27L 7 29Z" fill="black"/>
<path fill-rule="evenodd" clip-rule="evenodd" d="M 6 28C 6 27.4477 6.44772 27 7 27L 7 29C 6.44772 29 6 28.5523 6 28ZM 7 29L 12 29C 14.363 29 15.6669 29.471 16.47 29.973C 17.0744 30.3507 17.4009 30.7216 17.7616 31.1312C 17.9227 31.3141 18.0905 31.5047 18.2929 31.7071L 22.2929 35.7071C 22.601 36.0152 22.6716 36.3029 22.658 36.535C 22.6429 36.7918 22.5172 37.0686 22.2929 37.2929C 22.0686 37.5172 21.7918 37.6429 21.535 37.658C 21.3029 37.6716 21.0152 37.601 20.7071 37.2929L 16.7071 33.2929C 16.3166 32.9024 15.6834 32.9024 15.2929 33.2929C 14.9024 33.6834 14.9024 34.3166 15.2929 34.7071L 19.2929 38.7071C 19.9848 39.399 20.8221 39.7034 21.6525 39.6545C 22.4582 39.6071 23.1814 39.2328 23.7071 38.7071C 24.2328 38.1814 24.6071 37.4582 24.6545 36.6525C 24.7034 35.8221 24.399 34.9848 23.7071 34.2929L 19.7071 30.2929C 19.6306 30.2164 19.5362 30.1092 19.4233 29.9808C 19.028 29.5316 18.4057 28.8243 17.53 28.277C 16.3331 27.529 14.637 27 12 27L 7 27L 7 29Z" fill="url(#paint1_linear)"/>
<path fill-rule="evenodd" clip-rule="evenodd" d="M 2.33211 27.3321C 2.09745 27.5668 2 27.8252 2 28L 2 34C 2 34.5523 1.55228 35 1 35C 0.447715 35 0 34.5523 0 34L 0 28C 0 27.1748 0.402547 26.4332 0.917893 25.9179C 1.43324 25.4025 2.17477 25 3 25L 5 25C 5.82523 25 6.56676 25.4025 7.08211 25.9179C 7.59745 26.4332 8 27.1748 8 28L 8 36C 8 36.8252 7.59745 37.5668 7.08211 38.0821C 6.56676 38.5975 5.82523 39 5 39L 4 39C 3.44772 39 3 38.5523 3 38C 3 37.4477 3.44772 37 4 37L 5 37C 5.17477 37 5.43324 36.9025 5.66789 36.6679C 5.90255 36.4332 6 36.1748 6 36L 6 28C 6 27.8252 5.90255 27.5668 5.66789 27.3321C 5.43324 27.0975 5.17477 27 5 27L 3 27C 2.82523 27 2.56676 27.0975 2.33211 27.3321Z" fill="black"/>
<path fill-rule="evenodd" clip-rule="evenodd" d="M 2.33211 27.3321C 2.09745 27.5668 2 27.8252 2 28L 2 34C 2 34.5523 1.55228 35 1 35C 0.447715 35 0 34.5523 0 34L 0 28C 0 27.1748 0.402547 26.4332 0.917893 25.9179C 1.43324 25.4025 2.17477 25 3 25L 5 25C 5.82523 25 6.56676 25.4025 7.08211 25.9179C 7.59745 26.4332 8 27.1748 8 28L 8 36C 8 36.8252 7.59745 37.5668 7.08211 38.0821C 6.56676 38.5975 5.82523 39 5 39L 4 39C 3.44772 39 3 38.5523 3 38C 3 37.4477 3.44772 37 4 37L 5 37C 5.17477 37 5.43324 36.9025 5.66789 36.6679C 5.90255 36.4332 6 36.1748 6 36L 6 28C 6 27.8252 5.90255 27.5668 5.66789 27.3321C 5.43324 27.0975 5.17477 27 5 27L 3 27C 2.82523 27 2.56676 27.0975 2.33211 27.3321Z" fill="url(#paint2_linear)"/>
<path d="M 2 38C 2 38.5523 1.55228 39 1 39C 0.447715 39 0 38.5523 0 38C 0 37.4477 0.447715 37 1 37C 1.55228 37 2 37.4477 2 38Z" fill="black"/>
<path d="M 2 38C 2 38.5523 1.55228 39 1 39C 0.447715 39 0 38.5523 0 38C 0 37.4477 0.447715 37 1 37C 1.55228 37 2 37.4477 2 38Z" fill="url(#paint3_linear)"/>
<path fill-rule="evenodd" clip-rule="evenodd" d="M 46.25 9C 46.25 9.55229 45.8023 10 45.25 10L 42.25 10C 41.0859 10 40.0547 9.24811 39.2323 8.48153C 38.4429 7.74578 37.6413 6.7941 36.8758 5.88531C 36.808 5.80477 36.7404 5.72456 36.6732 5.64487C 35.8219 4.63591 35.0113 3.69672 34.213 3.00636C 33.3947 2.29862 32.7536 2 32.25 2L 21.25 2C 20.7329 2 20.4354 2.16631 20.2696 2.33211C 20.0944 2.50731 20 2.74736 20 3C 20 3.25264 20.0944 3.49269 20.2696 3.66789C 20.4354 3.83369 20.7329 4 21.25 4L 25.25 4C 25.8023 4 26.25 4.44772 26.25 5C 26.25 5.55228 25.8023 6 25.25 6L 21.25 6C 20.2671 6 19.4396 5.66631 18.8554 5.08211C 18.2806 4.50731 18 3.74736 18 3C 18 2.25264 18.2806 1.49269 18.8554 0.917893C 19.4396 0.33369 20.2671 0 21.25 0L 32.25 0C 33.4964 0 34.6053 0.701383 35.5213 1.49364C 36.4575 2.30328 37.3656 3.36409 38.2018 4.35513C 38.2636 4.42835 38.3249 4.50117 38.3859 4.57353C 39.1754 5.51029 39.8996 6.36955 40.5959 7.01847C 41.3828 7.75189 41.9141 8 42.25 8L 45.25 8C 45.8023 8 46.25 8.44771 46.25 9Z" fill="black"/>
<path fill-rule="evenodd" clip-rule="evenodd" d="M 46.25 9C 46.25 9.55229 45.8023 10 45.25 10L 42.25 10C 41.0859 10 40.0547 9.24811 39.2323 8.48153C 38.4429 7.74578 37.6413 6.7941 36.8758 5.88531C 36.808 5.80477 36.7404 5.72456 36.6732 5.64487C 35.8219 4.63591 35.0113 3.69672 34.213 3.00636C 33.3947 2.29862 32.7536 2 32.25 2L 21.25 2C 20.7329 2 20.4354 2.16631 20.2696 2.33211C 20.0944 2.50731 20 2.74736 20 3C 20 3.25264 20.0944 3.49269 20.2696 3.66789C 20.4354 3.83369 20.7329 4 21.25 4L 25.25 4C 25.8023 4 26.25 4.44772 26.25 5C 26.25 5.55228 25.8023 6 25.25 6L 21.25 6C 20.2671 6 19.4396 5.66631 18.8554 5.08211C 18.2806 4.50731 18 3.74736 18 3C 18 2.25264 18.2806 1.49269 18.8554 0.917893C 19.4396 0.33369 20.2671 0 21.25 0L 32.25 0C 33.4964 0 34.6053 0.701383 35.5213 1.49364C 36.4575 2.30328 37.3656 3.36409 38.2018 4.35513C 38.2636 4.42835 38.3249 4.50117 38.3859 4.57353C 39.1754 5.51029 39.8996 6.36955 40.5959 7.01847C 41.3828 7.75189 41.9141 8 42.25 8L 45.25 8C 45.8023 8 46.25 8.44771 46.25 9Z" fill="url(#paint4_linear)"/>
<path fill-rule="evenodd" clip-rule="evenodd" d="M 46.25 17C 46.25 17.5523 45.8023 18 45.25 18L 45.25 16C 45.8023 16 46.25 16.4477 46.25 17ZM 45.25 16L 40.25 16C 37.887 16 36.5831 15.529 35.78 15.027C 35.1756 14.6493 34.8491 14.2784 34.4884 13.8688C 34.3273 13.6859 34.1595 13.4953 33.9571 13.2929L 29.9571 9.29289C 29.649 8.98477 29.5784 8.69712 29.592 8.46497C 29.6071 8.20824 29.7328 7.93144 29.9571 7.70711C 30.1814 7.48277 30.4582 7.35713 30.715 7.34202C 30.9471 7.32837 31.2348 7.39898 31.5429 7.70711L 35.5429 11.7071C 35.9334 12.0976 36.5666 12.0976 36.9571 11.7071C 37.3476 11.3166 37.3476 10.6834 36.9571 10.2929L 32.9571 6.29289C 32.2652 5.60102 31.4279 5.29663 30.5975 5.34548C 29.7918 5.39287 29.0686 5.76723 28.5429 6.29289C 28.0172 6.81856 27.6429 7.54176 27.5955 8.34753C 27.5466 9.17788 27.851 10.0152 28.5429 10.7071L 32.5429 14.7071C 32.6194 14.7836 32.7138 14.8908 32.8267 15.0192C 33.222 15.4684 33.8443 16.1757 34.72 16.723C 35.9169 17.471 37.613 18 40.25 18L 45.25 18L 45.25 16Z" fill="black"/>
<path fill-rule="evenodd" clip-rule="evenodd" d="M 46.25 17C 46.25 17.5523 45.8023 18 45.25 18L 45.25 16C 45.8023 16 46.25 16.4477 46.25 17ZM 45.25 16L 40.25 16C 37.887 16 36.5831 15.529 35.78 15.027C 35.1756 14.6493 34.8491 14.2784 34.4884 13.8688C 34.3273 13.6859 34.1595 13.4953 33.9571 13.2929L 29.9571 9.29289C 29.649 8.98477 29.5784 8.69712 29.592 8.46497C 29.6071 8.20824 29.7328 7.93144 29.9571 7.70711C 30.1814 7.48277 30.4582 7.35713 30.715 7.34202C 30.9471 7.32837 31.2348 7.39898 31.5429 7.70711L 35.5429 11.7071C 35.9334 12.0976 36.5666 12.0976 36.9571 11.7071C 37.3476 11.3166 37.3476 10.6834 36.9571 10.2929L 32.9571 6.29289C 32.2652 5.60102 31.4279 5.29663 30.5975 5.34548C 29.7918 5.39287 29.0686 5.76723 28.5429 6.29289C 28.0172 6.81856 27.6429 7.54176 27.5955 8.34753C 27.5466 9.17788 27.851 10.0152 28.5429 10.7071L 32.5429 14.7071C 32.6194 14.7836 32.7138 14.8908 32.8267 15.0192C 33.222 15.4684 33.8443 16.1757 34.72 16.723C 35.9169 17.471 37.613 18 40.25 18L 45.25 18L 45.25 16Z" fill="url(#paint5_linear)"/>
<path fill-rule="evenodd" clip-rule="evenodd" d="M 49.9179 17.6679C 50.1525 17.4332 50.25 17.1748 50.25 17L 50.25 11C 50.25 10.4477 50.6977 10 51.25 10C 51.8023 10 52.25 10.4477 52.25 11L 52.25 17C 52.25 17.8252 51.8475 18.5668 51.3321 19.0821C 50.8168 19.5975 50.0752 20 49.25 20L 47.25 20C 46.4248 20 45.6832 19.5975 45.1679 19.0821C 44.6525 18.5668 44.25 17.8252 44.25 17L 44.25 9C 44.25 8.17477 44.6525 7.43324 45.1679 6.91789C 45.6832 6.40255 46.4248 6 47.25 6L 48.25 6C 48.8023 6 49.25 6.44771 49.25 7C 49.25 7.55229 48.8023 8 48.25 8L 47.25 8C 47.0752 8 46.8168 8.09745 46.5821 8.33211C 46.3475 8.56676 46.25 8.82523 46.25 9L 46.25 17C 46.25 17.1748 46.3475 17.4332 46.5821 17.6679C 46.8168 17.9025 47.0752 18 47.25 18L 49.25 18C 49.4248 18 49.6832 17.9025 49.9179 17.6679Z" fill="black"/>
<path fill-rule="evenodd" clip-rule="evenodd" d="M 49.9179 17.6679C 50.1525 17.4332 50.25 17.1748 50.25 17L 50.25 11C 50.25 10.4477 50.6977 10 51.25 10C 51.8023 10 52.25 10.4477 52.25 11L 52.25 17C 52.25 17.8252 51.8475 18.5668 51.3321 19.0821C 50.8168 19.5975 50.0752 20 49.25 20L 47.25 20C 46.4248 20 45.6832 19.5975 45.1679 19.0821C 44.6525 18.5668 44.25 17.8252 44.25 17L 44.25 9C 44.25 8.17477 44.6525 7.43324 45.1679 6.91789C 45.6832 6.40255 46.4248 6 47.25 6L 48.25 6C 48.8023 6 49.25 6.44771 49.25 7C 49.25 7.55229 48.8023 8 48.25 8L 47.25 8C 47.0752 8 46.8168 8.09745 46.5821 8.33211C 46.3475 8.56676 46.25 8.82523 46.25 9L 46.25 17C 46.25 17.1748 46.3475 17.4332 46.5821 17.6679C 46.8168 17.9025 47.0752 18 47.25 18L 49.25 18C 49.4248 18 49.6832 17.9025 49.9179 17.6679Z" fill="url(#paint6_linear)"/>
<path d="M 50.25 7C 50.25 6.44772 50.6977 6 51.25 6C 51.8023 6 52.25 6.44772 52.25 7C 52.25 7.55228 51.8023 8 51.25 8C 50.6977 8 50.25 7.55228 50.25 7Z" fill="black"/>
<path d="M 50.25 7C 50.25 6.44772 50.6977 6 51.25 6C 51.8023 6 52.25 6.44772 52.25 7C 52.25 7.55228 51.8023 8 51.25 8C 50.6977 8 50.25 7.55228 50.25 7Z" fill="url(#paint7_linear)"/>
<path fill-rule="evenodd" clip-rule="evenodd" d="M 21.5 19C 21.5 16.8512 23.5494 15 26 15C 28.4072 15 29.6522 16.2379 30.2071 16.7929C 30.5976 17.1834 30.5976 17.8166 30.2071 18.2071C 29.8166 18.5976 29.1834 18.5976 28.7929 18.2071L 28.7871 18.2013C 28.3412 17.7554 27.5859 17 26 17C 24.4506 17 23.5 18.1488 23.5 19C 23.5 19.532 23.6756 20.0113 24.0196 20.3554C 24.356 20.6918 24.9552 21 26 21C 27.4324 21 28.8218 21.428 29.8007 22.3253C 30.8179 23.2578 31.2967 24.6157 30.9806 26.1961C 30.4745 28.7263 28.3648 30 26 30C 24.8517 30 23.6461 29.7159 22.6953 29.0821C 21.7148 28.4284 21 27.3879 21 26C 21 25.4477 21.4477 25 22 25C 22.5523 25 23 25.4477 23 26C 23 26.6121 23.2852 27.0716 23.8047 27.4179C 24.3539 27.7841 25.1483 28 26 28C 27.6352 28 28.741 27.196 29.0194 25.8039C 29.2033 24.8843 28.9321 24.2422 28.4493 23.7997C 27.9282 23.322 27.0676 23 26 23C 24.5448 23 23.394 22.5582 22.6054 21.7696C 21.8244 20.9887 21.5 19.968 21.5 19Z" fill="black"/>
<path fill-rule="evenodd" clip-rule="evenodd" d="M 21.5 19C 21.5 16.8512 23.5494 15 26 15C 28.4072 15 29.6522 16.2379 30.2071 16.7929C 30.5976 17.1834 30.5976 17.8166 30.2071 18.2071C 29.8166 18.5976 29.1834 18.5976 28.7929 18.2071L 28.7871 18.2013C 28.3412 17.7554 27.5859 17 26 17C 24.4506 17 23.5 18.1488 23.5 19C 23.5 19.532 23.6756 20.0113 24.0196 20.3554C 24.356 20.6918 24.9552 21 26 21C 27.4324 21 28.8218 21.428 29.8007 22.3253C 30.8179 23.2578 31.2967 24.6157 30.9806 26.1961C 30.4745 28.7263 28.3648 30 26 30C 24.8517 30 23.6461 29.7159 22.6953 29.0821C 21.7148 28.4284 21 27.3879 21 26C 21 25.4477 21.4477 25 22 25C 22.5523 25 23 25.4477 23 26C 23 26.6121 23.2852 27.0716 23.8047 27.4179C 24.3539 27.7841 25.1483 28 26 28C 27.6352 28 28.741 27.196 29.0194 25.8039C 29.2033 24.8843 28.9321 24.2422 28.4493 23.7997C 27.9282 23.322 27.0676 23 26 23C 24.5448 23 23.394 22.5582 22.6054 21.7696C 21.8244 20.9887 21.5 19.968 21.5 19Z" fill="url(#paint8_linear)"/>
<path fill-rule="evenodd" clip-rule="evenodd" d="M 26 13C 26.5523 13 27 13.4477 27 14L 27 15.5C 27 16.0523 26.5523 16.5 26 16.5C 25.4477 16.5 25 16.0523 25 15.5L 25 14C 25 13.4477 25.4477 13 26 13Z" fill="black"/>
<path fill-rule="evenodd" clip-rule="evenodd" d="M 26 13C 26.5523 13 27 13.4477 27 14L 27 15.5C 27 16.0523 26.5523 16.5 26 16.5C 25.4477 16.5 25 16.0523 25 15.5L 25 14C 25 13.4477 25.4477 13 26 13Z" fill="url(#paint9_linear)"/>
<path fill-rule="evenodd" clip-rule="evenodd" d="M 26 29C 26.5523 29 27 29.4477 27 30L 27 31C 27 31.5523 26.5523 32 26 32C 25.4477 32 25 31.5523 25 31L 25 30C 25 29.4477 25.4477 29 26 29Z" fill="black"/>
<path fill-rule="evenodd" clip-rule="evenodd" d="M 26 29C 26.5523 29 27 29.4477 27 30L 27 31C 27 31.5523 26.5523 32 26 32C 25.4477 32 25 31.5523 25 31L 25 30C 25 29.4477 25.4477 29 26 29Z" fill="url(#paint10_linear)"/>
<path fill-rule="evenodd" clip-rule="evenodd" d="M 25.0126 7.00753C 25.1745 7.00252 25.337 7 25.5 7C 25.663 7 25.8255 7.00252 25.9874 7.00753C 26.5395 7.0246 26.9731 7.48594 26.956 8.03796C 26.939 8.58998 26.4776 9.02365 25.9256 9.00657C 25.7843 9.0022 25.6424 9 25.5 9C 25.3576 9 25.2157 9.0022 25.0744 9.00657C 24.5224 9.02365 24.061 8.58998 24.044 8.03796C 24.0269 7.48594 24.4605 7.0246 25.0126 7.00753ZM 22.4134 8.29371C 22.5673 8.82413 22.262 9.37885 21.7316 9.53271C 21.4593 9.61169 21.1905 9.69903 20.9256 9.79442C 20.406 9.98153 19.8331 9.71198 19.646 9.19235C 19.4589 8.67273 19.7284 8.09981 20.248 7.9127C 20.5525 7.80306 20.8614 7.70267 21.1744 7.61188C 21.7048 7.45802 22.2596 7.76329 22.4134 8.29371ZM 18.1758 9.94321C 18.4866 10.3997 18.3685 11.0218 17.912 11.3326C 17.678 11.492 17.4492 11.6585 17.226 11.8319C 16.7898 12.1707 16.1616 12.0918 15.8228 11.6556C 15.484 11.2194 15.5629 10.5912 15.9991 10.2524C 16.2552 10.0535 16.5178 9.86235 16.7864 9.67945C 17.2429 9.36861 17.8649 9.4867 18.1758 9.94321ZM 14.6556 12.8228C 15.0918 13.1616 15.1707 13.7898 14.8319 14.226C 14.6585 14.4492 14.492 14.678 14.3326 14.912C 14.0218 15.3685 13.3997 15.4866 12.9432 15.1758C 12.4867 14.8649 12.3686 14.2429 12.6794 13.7864C 12.8623 13.5178 13.0535 13.2552 13.2524 12.9991C 13.5912 12.5629 14.2194 12.484 14.6556 12.8228ZM 38.8076 16.646C 39.3273 16.4589 39.9002 16.7284 40.0873 17.248C 40.1969 17.5525 40.2973 17.8614 40.3881 18.1744C 40.542 18.7048 40.2367 19.2596 39.7063 19.4134C 39.1759 19.5673 38.6212 19.262 38.4673 18.7316C 38.3883 18.4593 38.301 18.1905 38.2056 17.9256C 38.0185 17.406 38.288 16.8331 38.8076 16.646ZM 12.1924 16.646C 12.712 16.8331 12.9815 17.406 12.7944 17.9256C 12.699 18.1905 12.6117 18.4593 12.5327 18.7316C 12.3788 19.262 11.8241 19.5673 11.2937 19.4134C 10.7633 19.2596 10.458 18.7048 10.6119 18.1744C 10.7027 17.8614 10.8031 17.5525 10.9127 17.248C 11.0998 16.7284 11.6727 16.4589 12.1924 16.646ZM 39.962 21.044C 40.5141 21.0269 40.9754 21.4605 40.9925 22.0126C 40.9975 22.1745 41 22.337 41 22.5C 41 22.663 40.9975 22.8255 40.9925 22.9874C 40.9754 23.5395 40.5141 23.9731 39.962 23.956C 39.41 23.939 38.9764 23.4776 38.9934 22.9256C 38.9978 22.7843 39 22.6424 39 22.5C 39 22.3576 38.9978 22.2157 38.9934 22.0744C 38.9764 21.5224 39.41 21.061 39.962 21.044ZM 11.038 21.044C 11.59 21.061 12.0236 21.5224 12.0066 22.0744C 12.0022 22.2157 12 22.3576 12 22.5C 12 22.6424 12.0022 22.7843 12.0066 22.9256C 12.0236 23.4776 11.59 23.939 11.038 23.956C 10.4859 23.9731 10.0246 23.5395 10.0075 22.9874C 10.0025 22.8255 10 22.663 10 22.5C 10 22.337 10.0025 22.1745 10.0075 22.0126C 10.0246 21.4605 10.4859 21.0269 11.038 21.044ZM 39.7063 25.5866C 40.2367 25.7404 40.542 26.2952 40.3881 26.8256C 40.2973 27.1386 40.1969 27.4475 40.0873 27.752C 39.9002 28.2716 39.3273 28.5411 38.8076 28.354C 38.288 28.1669 38.0185 27.594 38.2056 27.0744C 38.301 26.8095 38.3883 26.5407 38.4673 26.2684C 38.6212 25.738 39.1759 25.4327 39.7063 25.5866ZM 11.2937 25.5866C 11.8241 25.4327 12.3788 25.738 12.5327 26.2684C 12.6117 26.5407 12.699 26.8095 12.7944 27.0744C 12.9815 27.594 12.712 28.1669 12.1924 28.354C 11.6727 28.5411 11.0998 28.2716 10.9127 27.752C 10.8031 27.4475 10.7027 27.1386 10.6119 26.8256C 10.458 26.2952 10.7633 25.7404 11.2937 25.5866ZM 38.0568 29.8242C 38.5133 30.1351 38.6314 30.7571 38.3206 31.2136C 38.1377 31.4822 37.9465 31.7448 37.7476 32.0009C 37.4088 32.4371 36.7806 32.516 36.3444 32.1772C 35.9082 31.8384 35.8293 31.2102 36.1681 30.774C 36.3415 30.5508 36.508 30.322 36.6674 30.088C 36.9782 29.6315 37.6003 29.5134 38.0568 29.8242ZM 35.1772 33.3444C 35.516 33.7806 35.4371 34.4088 35.0009 34.7476C 34.7448 34.9465 34.4822 35.1377 34.2136 35.3206C 33.7571 35.6314 33.1351 35.5133 32.8242 35.0568C 32.5134 34.6003 32.6315 33.9782 33.088 33.6674C 33.322 33.508 33.5508 33.3415 33.774 33.1681C 34.2102 32.8293 34.8384 32.9082 35.1772 33.3444ZM 31.354 35.8076C 31.5411 36.3273 31.2716 36.9002 30.752 37.0873C 30.4475 37.1969 30.1386 37.2973 29.8256 37.3881C 29.2952 37.542 28.7404 37.2367 28.5866 36.7063C 28.4327 36.1759 28.738 35.6212 29.2684 35.4673C 29.5407 35.3883 29.8095 35.301 30.0744 35.2056C 30.594 35.0185 31.1669 35.288 31.354 35.8076ZM 24.044 36.962C 24.061 36.41 24.5224 35.9764 25.0744 35.9934C 25.2157 35.9978 25.3576 36 25.5 36C 25.6424 36 25.7843 35.9978 25.9256 35.9934C 26.4776 35.9764 26.939 36.41 26.956 36.962C 26.9731 37.5141 26.5395 37.9754 25.9874 37.9925C 25.8255 37.9975 25.663 38 25.5 38C 25.337 38 25.1745 37.9975 25.0126 37.9925C 24.4605 37.9754 24.0269 37.5141 24.044 36.962Z" fill="black"/>
<path fill-rule="evenodd" clip-rule="evenodd" d="M 25.0126 7.00753C 25.1745 7.00252 25.337 7 25.5 7C 25.663 7 25.8255 7.00252 25.9874 7.00753C 26.5395 7.0246 26.9731 7.48594 26.956 8.03796C 26.939 8.58998 26.4776 9.02365 25.9256 9.00657C 25.7843 9.0022 25.6424 9 25.5 9C 25.3576 9 25.2157 9.0022 25.0744 9.00657C 24.5224 9.02365 24.061 8.58998 24.044 8.03796C 24.0269 7.48594 24.4605 7.0246 25.0126 7.00753ZM 22.4134 8.29371C 22.5673 8.82413 22.262 9.37885 21.7316 9.53271C 21.4593 9.61169 21.1905 9.69903 20.9256 9.79442C 20.406 9.98153 19.8331 9.71198 19.646 9.19235C 19.4589 8.67273 19.7284 8.09981 20.248 7.9127C 20.5525 7.80306 20.8614 7.70267 21.1744 7.61188C 21.7048 7.45802 22.2596 7.76329 22.4134 8.29371ZM 18.1758 9.94321C 18.4866 10.3997 18.3685 11.0218 17.912 11.3326C 17.678 11.492 17.4492 11.6585 17.226 11.8319C 16.7898 12.1707 16.1616 12.0918 15.8228 11.6556C 15.484 11.2194 15.5629 10.5912 15.9991 10.2524C 16.2552 10.0535 16.5178 9.86235 16.7864 9.67945C 17.2429 9.36861 17.8649 9.4867 18.1758 9.94321ZM 14.6556 12.8228C 15.0918 13.1616 15.1707 13.7898 14.8319 14.226C 14.6585 14.4492 14.492 14.678 14.3326 14.912C 14.0218 15.3685 13.3997 15.4866 12.9432 15.1758C 12.4867 14.8649 12.3686 14.2429 12.6794 13.7864C 12.8623 13.5178 13.0535 13.2552 13.2524 12.9991C 13.5912 12.5629 14.2194 12.484 14.6556 12.8228ZM 38.8076 16.646C 39.3273 16.4589 39.9002 16.7284 40.0873 17.248C 40.1969 17.5525 40.2973 17.8614 40.3881 18.1744C 40.542 18.7048 40.2367 19.2596 39.7063 19.4134C 39.1759 19.5673 38.6212 19.262 38.4673 18.7316C 38.3883 18.4593 38.301 18.1905 38.2056 17.9256C 38.0185 17.406 38.288 16.8331 38.8076 16.646ZM 12.1924 16.646C 12.712 16.8331 12.9815 17.406 12.7944 17.9256C 12.699 18.1905 12.6117 18.4593 12.5327 18.7316C 12.3788 19.262 11.8241 19.5673 11.2937 19.4134C 10.7633 19.2596 10.458 18.7048 10.6119 18.1744C 10.7027 17.8614 10.8031 17.5525 10.9127 17.248C 11.0998 16.7284 11.6727 16.4589 12.1924 16.646ZM 39.962 21.044C 40.5141 21.0269 40.9754 21.4605 40.9925 22.0126C 40.9975 22.1745 41 22.337 41 22.5C 41 22.663 40.9975 22.8255 40.9925 22.9874C 40.9754 23.5395 40.5141 23.9731 39.962 23.956C 39.41 23.939 38.9764 23.4776 38.9934 22.9256C 38.9978 22.7843 39 22.6424 39 22.5C 39 22.3576 38.9978 22.2157 38.9934 22.0744C 38.9764 21.5224 39.41 21.061 39.962 21.044ZM 11.038 21.044C 11.59 21.061 12.0236 21.5224 12.0066 22.0744C 12.0022 22.2157 12 22.3576 12 22.5C 12 22.6424 12.0022 22.7843 12.0066 22.9256C 12.0236 23.4776 11.59 23.939 11.038 23.956C 10.4859 23.9731 10.0246 23.5395 10.0075 22.9874C 10.0025 22.8255 10 22.663 10 22.5C 10 22.337 10.0025 22.1745 10.0075 22.0126C 10.0246 21.4605 10.4859 21.0269 11.038 21.044ZM 39.7063 25.5866C 40.2367 25.7404 40.542 26.2952 40.3881 26.8256C 40.2973 27.1386 40.1969 27.4475 40.0873 27.752C 39.9002 28.2716 39.3273 28.5411 38.8076 28.354C 38.288 28.1669 38.0185 27.594 38.2056 27.0744C 38.301 26.8095 38.3883 26.5407 38.4673 26.2684C 38.6212 25.738 39.1759 25.4327 39.7063 25.5866ZM 11.2937 25.5866C 11.8241 25.4327 12.3788 25.738 12.5327 26.2684C 12.6117 26.5407 12.699 26.8095 12.7944 27.0744C 12.9815 27.594 12.712 28.1669 12.1924 28.354C 11.6727 28.5411 11.0998 28.2716 10.9127 27.752C 10.8031 27.4475 10.7027 27.1386 10.6119 26.8256C 10.458 26.2952 10.7633 25.7404 11.2937 25.5866ZM 38.0568 29.8242C 38.5133 30.1351 38.6314 30.7571 38.3206 31.2136C 38.1377 31.4822 37.9465 31.7448 37.7476 32.0009C 37.4088 32.4371 36.7806 32.516 36.3444 32.1772C 35.9082 31.8384 35.8293 31.2102 36.1681 30.774C 36.3415 30.5508 36.508 30.322 36.6674 30.088C 36.9782 29.6315 37.6003 29.5134 38.0568 29.8242ZM 35.1772 33.3444C 35.516 33.7806 35.4371 34.4088 35.0009 34.7476C 34.7448 34.9465 34.4822 35.1377 34.2136 35.3206C 33.7571 35.6314 33.1351 35.5133 32.8242 35.0568C 32.5134 34.6003 32.6315 33.9782 33.088 33.6674C 33.322 33.508 33.5508 33.3415 33.774 33.1681C 34.2102 32.8293 34.8384 32.9082 35.1772 33.3444ZM 31.354 35.8076C 31.5411 36.3273 31.2716 36.9002 30.752 37.0873C 30.4475 37.1969 30.1386 37.2973 29.8256 37.3881C 29.2952 37.542 28.7404 37.2367 28.5866 36.7063C 28.4327 36.1759 28.738 35.6212 29.2684 35.4673C 29.5407 35.3883 29.8095 35.301 30.0744 35.2056C 30.594 35.0185 31.1669 35.288 31.354 35.8076ZM 24.044 36.962C 24.061 36.41 24.5224 35.9764 25.0744 35.9934C 25.2157 35.9978 25.3576 36 25.5 36C 25.6424 36 25.7843 35.9978 25.9256 35.9934C 26.4776 35.9764 26.939 36.41 26.956 36.962C 26.9731 37.5141 26.5395 37.9754 25.9874 37.9925C 25.8255 37.9975 25.663 38 25.5 38C 25.337 38 25.1745 37.9975 25.0126 37.9925C 24.4605 37.9754 24.0269 37.5141 24.044 36.962Z" fill="url(#paint11_linear)"/>
</g>
</g>
<defs>

<linearGradient id="paint0_linear" x2="1" gradientUnits="userSpaceOnUse" gradientTransform="matrix(12.7439 45 -52.25 10.9756 42.6921 -5.4878)">
<stop stop-color="#8E00F2"/>
<stop offset="1" stop-color="#0076E4"/>
</linearGradient>
<linearGradient id="paint1_linear" x2="1" gradientUnits="userSpaceOnUse" gradientTransform="matrix(12.7439 45 -52.25 10.9756 42.6921 -5.4878)">
<stop stop-color="#8E00F2"/>
<stop offset="1" stop-color="#0076E4"/>
</linearGradient>
<linearGradient id="paint2_linear" x2="1" gradientUnits="userSpaceOnUse" gradientTransform="matrix(12.7439 45 -52.25 10.9756 42.6921 -5.4878)">
<stop stop-color="#8E00F2"/>
<stop offset="1" stop-color="#0076E4"/>
</linearGradient>
<linearGradient id="paint3_linear" x2="1" gradientUnits="userSpaceOnUse" gradientTransform="matrix(12.7439 45 -52.25 10.9756 42.6921 -5.4878)">
<stop stop-color="#8E00F2"/>
<stop offset="1" stop-color="#0076E4"/>
</linearGradient>
<linearGradient id="paint4_linear" x2="1" gradientUnits="userSpaceOnUse" gradientTransform="matrix(12.7439 45 -52.25 10.9756 42.6921 -5.4878)">
<stop stop-color="#8E00F2"/>
<stop offset="1" stop-color="#0076E4"/>
</linearGradient>
<linearGradient id="paint5_linear" x2="1" gradientUnits="userSpaceOnUse" gradientTransform="matrix(12.7439 45 -52.25 10.9756 42.6921 -5.4878)">
<stop stop-color="#8E00F2"/>
<stop offset="1" stop-color="#0076E4"/>
</linearGradient>
<linearGradient id="paint6_linear" x2="1" gradientUnits="userSpaceOnUse" gradientTransform="matrix(12.7439 45 -52.25 10.9756 42.6921 -5.4878)">
<stop stop-color="#8E00F2"/>
<stop offset="1" stop-color="#0076E4"/>
</linearGradient>
<linearGradient id="paint7_linear" x2="1" gradientUnits="userSpaceOnUse" gradientTransform="matrix(12.7439 45 -52.25 10.9756 42.6921 -5.4878)">
<stop stop-color="#8E00F2"/>
<stop offset="1" stop-color="#0076E4"/>
</linearGradient>
<linearGradient id="paint8_linear" x2="1" gradientUnits="userSpaceOnUse" gradientTransform="matrix(12.7439 45 -52.25 10.9756 42.6921 -5.4878)">
<stop stop-color="#8E00F2"/>
<stop offset="1" stop-color="#0076E4"/>
</linearGradient>
<linearGradient id="paint9_linear" x2="1" gradientUnits="userSpaceOnUse" gradientTransform="matrix(12.7439 45 -52.25 10.9756 42.6921 -5.4878)">
<stop stop-color="#8E00F2"/>
<stop offset="1" stop-color="#0076E4"/>
</linearGradient>
<linearGradient id="paint10_linear" x2="1" gradientUnits="userSpaceOnUse" gradientTransform="matrix(12.7439 45 -52.25 10.9756 42.6921 -5.4878)">
<stop stop-color="#8E00F2"/>
<stop offset="1" stop-color="#0076E4"/>
</linearGradient>
<linearGradient id="paint11_linear" x2="1" gradientUnits="userSpaceOnUse" gradientTransform="matrix(12.7439 45 -52.25 10.9756 42.6921 -5.4878)">
<stop stop-color="#8E00F2"/>
<stop offset="1" stop-color="#0076E4"/>
</linearGradient>

</defs>
</svg>

