<svg width="42" height="46" viewBox="0 0 42 46" version="1.1" xmlns="http://www.w3.org/2000/svg" xmlns:xlink="http://www.w3.org/1999/xlink">
<g id="Canvas" fill="none">
<g id="statistic-icon-320">
<path fill-rule="evenodd" clip-rule="evenodd" d="M 0 45C 0 44.4477 0.447715 44 1 44L 41 44C 41.5523 44 42 44.4477 42 45C 42 45.5523 41.5523 46 41 46L 1 46C 0.447715 46 0 45.5523 0 45Z" fill="black"/>
<path fill-rule="evenodd" clip-rule="evenodd" d="M 0 45C 0 44.4477 0.447715 44 1 44L 41 44C 41.5523 44 42 44.4477 42 45C 42 45.5523 41.5523 46 41 46L 1 46C 0.447715 46 0 45.5523 0 45Z" fill="url(#paint0_linear)"/>
<path fill-rule="evenodd" clip-rule="evenodd" d="M 4.3343 36.2115C 4.17513 36.3261 4 36.5259 4 37L 4 45C 4 45.5523 3.55228 46 3 46C 2.44772 46 2 45.5523 2 45L 2 37C 2 35.8741 2.49153 35.0739 3.1657 34.5885C 3.78887 34.1398 4.50664 34 5 34L 9 34C 9.49336 34 10.2111 34.1398 10.8343 34.5885C 11.5085 35.0739 12 35.8741 12 37L 12 45C 12 45.5523 11.5523 46 11 46C 10.4477 46 10 45.5523 10 45L 10 37C 10 36.5259 9.82487 36.3261 9.6657 36.2115C 9.45554 36.0602 9.17331 36 9 36L 5 36C 4.82669 36 4.54447 36.0602 4.3343 36.2115Z" fill="black"/>
<path fill-rule="evenodd" clip-rule="evenodd" d="M 4.3343 36.2115C 4.17513 36.3261 4 36.5259 4 37L 4 45C 4 45.5523 3.55228 46 3 46C 2.44772 46 2 45.5523 2 45L 2 37C 2 35.8741 2.49153 35.0739 3.1657 34.5885C 3.78887 34.1398 4.50664 34 5 34L 9 34C 9.49336 34 10.2111 34.1398 10.8343 34.5885C 11.5085 35.0739 12 35.8741 12 37L 12 45C 12 45.5523 11.5523 46 11 46C 10.4477 46 10 45.5523 10 45L 10 37C 10 36.5259 9.82487 36.3261 9.6657 36.2115C 9.45554 36.0602 9.17331 36 9 36L 5 36C 4.82669 36 4.54447 36.0602 4.3343 36.2115Z" fill="url(#paint1_linear)"/>
<path fill-rule="evenodd" clip-rule="evenodd" d="M 18.3343 29.2115C 18.1751 29.3261 18 29.5259 18 30L 18 45C 18 45.5523 17.5523 46 17 46C 16.4477 46 16 45.5523 16 45L 16 30C 16 28.8741 16.4915 28.0739 17.1657 27.5885C 17.7889 27.1398 18.5066 27 19 27L 23 27C 23.4934 27 24.2111 27.1398 24.8343 27.5885C 25.5085 28.0739 26 28.8741 26 30L 26 45C 26 45.5523 25.5523 46 25 46C 24.4477 46 24 45.5523 24 45L 24 30C 24 29.5259 23.8249 29.3261 23.6657 29.2115C 23.4555 29.0602 23.1733 29 23 29L 19 29C 18.8267 29 18.5445 29.0602 18.3343 29.2115Z" fill="black"/>
<path fill-rule="evenodd" clip-rule="evenodd" d="M 18.3343 29.2115C 18.1751 29.3261 18 29.5259 18 30L 18 45C 18 45.5523 17.5523 46 17 46C 16.4477 46 16 45.5523 16 45L 16 30C 16 28.8741 16.4915 28.0739 17.1657 27.5885C 17.7889 27.1398 18.5066 27 19 27L 23 27C 23.4934 27 24.2111 27.1398 24.8343 27.5885C 25.5085 28.0739 26 28.8741 26 30L 26 45C 26 45.5523 25.5523 46 25 46C 24.4477 46 24 45.5523 24 45L 24 30C 24 29.5259 23.8249 29.3261 23.6657 29.2115C 23.4555 29.0602 23.1733 29 23 29L 19 29C 18.8267 29 18.5445 29.0602 18.3343 29.2115Z" fill="url(#paint2_linear)"/>
<path fill-rule="evenodd" clip-rule="evenodd" d="M 32.3343 16.2115C 32.1751 16.3261 32 16.5259 32 17L 32 45C 32 45.5523 31.5523 46 31 46C 30.4477 46 30 45.5523 30 45L 30 17C 30 15.8741 30.4915 15.0739 31.1657 14.5885C 31.7889 14.1398 32.5066 14 33 14L 37 14C 37.4934 14 38.2111 14.1398 38.8343 14.5885C 39.5085 15.0739 40 15.8741 40 17L 40 45C 40 45.5523 39.5523 46 39 46C 38.4477 46 38 45.5523 38 45L 38 17C 38 16.5259 37.8249 16.3261 37.6657 16.2115C 37.4555 16.0602 37.1733 16 37 16L 33 16C 32.8267 16 32.5445 16.0602 32.3343 16.2115Z" fill="black"/>
<path fill-rule="evenodd" clip-rule="evenodd" d="M 32.3343 16.2115C 32.1751 16.3261 32 16.5259 32 17L 32 45C 32 45.5523 31.5523 46 31 46C 30.4477 46 30 45.5523 30 45L 30 17C 30 15.8741 30.4915 15.0739 31.1657 14.5885C 31.7889 14.1398 32.5066 14 33 14L 37 14C 37.4934 14 38.2111 14.1398 38.8343 14.5885C 39.5085 15.0739 40 15.8741 40 17L 40 45C 40 45.5523 39.5523 46 39 46C 38.4477 46 38 45.5523 38 45L 38 17C 38 16.5259 37.8249 16.3261 37.6657 16.2115C 37.4555 16.0602 37.1733 16 37 16L 33 16C 32.8267 16 32.5445 16.0602 32.3343 16.2115Z" fill="url(#paint3_linear)"/>
<path fill-rule="evenodd" clip-rule="evenodd" d="M 38.7071 0.292893C 39.0976 0.683417 39.0976 1.31658 38.7071 1.70711L 27 13.4142L 24 10.4142L 8.70711 25.7071C 8.31658 26.0976 7.68342 26.0976 7.29289 25.7071C 6.90237 25.3166 6.90237 24.6834 7.29289 24.2929L 24 7.58579L 27 10.5858L 37.2929 0.292893C 37.6834 -0.0976311 38.3166 -0.0976311 38.7071 0.292893Z" fill="black"/>
<path fill-rule="evenodd" clip-rule="evenodd" d="M 38.7071 0.292893C 39.0976 0.683417 39.0976 1.31658 38.7071 1.70711L 27 13.4142L 24 10.4142L 8.70711 25.7071C 8.31658 26.0976 7.68342 26.0976 7.29289 25.7071C 6.90237 25.3166 6.90237 24.6834 7.29289 24.2929L 24 7.58579L 27 10.5858L 37.2929 0.292893C 37.6834 -0.0976311 38.3166 -0.0976311 38.7071 0.292893Z" fill="url(#paint4_linear)"/>
<path d="M 6 28C 6 28.5523 5.55228 29 5 29C 4.44772 29 4 28.5523 4 28C 4 27.4477 4.44772 27 5 27C 5.55228 27 6 27.4477 6 28Z" fill="black"/>
<path d="M 6 28C 6 28.5523 5.55228 29 5 29C 4.44772 29 4 28.5523 4 28C 4 27.4477 4.44772 27 5 27C 5.55228 27 6 27.4477 6 28Z" fill="url(#paint5_linear)"/>
<path fill-rule="evenodd" clip-rule="evenodd" d="M 31 1C 31 0.447715 31.4477 1.49012e-08 32 1.49012e-08L 38 1.49012e-08C 38.5523 1.49012e-08 39 0.447715 39 1L 39 7C 39 7.55228 38.5523 8 38 8C 37.4477 8 37 7.55228 37 7L 37 2L 32 2C 31.4477 2 31 1.55228 31 1Z" fill="black"/>
<path fill-rule="evenodd" clip-rule="evenodd" d="M 31 1C 31 0.447715 31.4477 1.49012e-08 32 1.49012e-08L 38 1.49012e-08C 38.5523 1.49012e-08 39 0.447715 39 1L 39 7C 39 7.55228 38.5523 8 38 8C 37.4477 8 37 7.55228 37 7L 37 2L 32 2C 31.4477 2 31 1.55228 31 1Z" fill="url(#paint6_linear)"/>
</g>
</g>
<defs>

<linearGradient id="paint0_linear" x2="1" gradientUnits="userSpaceOnUse" gradientTransform="matrix(10.2439 46 -42 11.2195 34.3171 -5.60976)">
<stop stop-color="#8E00F2"/>
<stop offset="1" stop-color="#0076E4"/>
</linearGradient>
<linearGradient id="paint1_linear" x2="1" gradientUnits="userSpaceOnUse" gradientTransform="matrix(10.2439 46 -42 11.2195 34.3171 -5.60976)">
<stop stop-color="#8E00F2"/>
<stop offset="1" stop-color="#0076E4"/>
</linearGradient>
<linearGradient id="paint2_linear" x2="1" gradientUnits="userSpaceOnUse" gradientTransform="matrix(10.2439 46 -42 11.2195 34.3171 -5.60976)">
<stop stop-color="#8E00F2"/>
<stop offset="1" stop-color="#0076E4"/>
</linearGradient>
<linearGradient id="paint3_linear" x2="1" gradientUnits="userSpaceOnUse" gradientTransform="matrix(10.2439 46 -42 11.2195 34.3171 -5.60976)">
<stop stop-color="#8E00F2"/>
<stop offset="1" stop-color="#0076E4"/>
</linearGradient>
<linearGradient id="paint4_linear" x2="1" gradientUnits="userSpaceOnUse" gradientTransform="matrix(10.2439 46 -42 11.2195 34.3171 -5.60976)">
<stop stop-color="#8E00F2"/>
<stop offset="1" stop-color="#0076E4"/>
</linearGradient>
<linearGradient id="paint5_linear" x2="1" gradientUnits="userSpaceOnUse" gradientTransform="matrix(10.2439 46 -42 11.2195 34.3171 -5.60976)">
<stop stop-color="#8E00F2"/>
<stop offset="1" stop-color="#0076E4"/>
</linearGradient>
<linearGradient id="paint6_linear" x2="1" gradientUnits="userSpaceOnUse" gradientTransform="matrix(10.2439 46 -42 11.2195 34.3171 -5.60976)">
<stop stop-color="#8E00F2"/>
<stop offset="1" stop-color="#0076E4"/>
</linearGradient>

</defs>
</svg>

