<svg width="19" height="18" viewBox="0 0 19 18" fill="none" xmlns="http://www.w3.org/2000/svg">
<path fill-rule="evenodd" clip-rule="evenodd" d="M10.949 0.985141C10.9077 0.922788 10.8741 0.855626 10.849 0.785141L10.886 0.751141L11.086 0.832141L11.3 0.916141C11.387 0.950014 11.4758 0.979058 11.566 1.00314C11.6128 1.01917 11.661 1.03089 11.71 1.03814C11.735 1.03814 11.759 1.04814 11.783 1.05314C11.807 1.05814 11.832 1.05314 11.856 1.05914C11.9518 1.06822 12.0482 1.06822 12.144 1.05914C12.19 1.04214 12.244 1.03714 12.292 1.01614C12.3432 0.994336 12.3927 0.968592 12.44 0.939141L12.511 0.891141C12.5414 0.877363 12.5691 0.858414 12.593 0.835141L12.768 0.687141V0.694141V0.689141L12.78 0.679141L12.803 0.658141L12.849 0.618141L12.936 0.535141C12.99 0.479141 13.059 0.435141 13.114 0.380141C13.169 0.325141 13.241 0.289141 13.299 0.235141C13.357 0.181141 13.433 0.149141 13.499 0.102141C13.6439 0.0253342 13.8074 -0.00931018 13.971 0.0021413C14.01 0.0021413 14.047 0.012141 14.084 0.019141C14.121 0.026141 14.153 0.0411413 14.184 0.0541413C14.2472 0.0763812 14.3078 0.105206 14.365 0.140141C14.4631 0.197358 14.5529 0.267671 14.632 0.349141C14.692 0.409893 14.7453 0.476948 14.791 0.549141C14.8216 0.595922 14.8477 0.645474 14.869 0.697141L14.9 0.749141L14.863 0.784141C14.863 0.784141 14.784 0.757141 14.663 0.707141L14.446 0.616141C14.367 0.583141 14.279 0.547141 14.187 0.516141C14.1409 0.498089 14.0938 0.48273 14.046 0.470141C14.021 0.464141 13.997 0.454141 13.973 0.447141C13.9483 0.442396 13.9239 0.436049 13.9 0.428141C13.7938 0.390502 13.6838 0.364679 13.572 0.351141C13.5083 0.352607 13.445 0.362699 13.384 0.381141C13.3205 0.404797 13.2621 0.440443 13.212 0.486141C13.1597 0.532226 13.1146 0.585809 13.078 0.645141L13.03 0.745141L13.008 0.794141L13 0.816141V0.828141V0.834141C12.9981 0.837777 12.9958 0.841141 12.993 0.844141L12.899 1.05314C12.8545 1.12978 12.8008 1.20065 12.739 1.26414C12.6758 1.32892 12.6057 1.38659 12.53 1.43614C12.4522 1.48334 12.3702 1.52317 12.285 1.55514C12.1189 1.60634 11.9423 1.61255 11.773 1.57314C11.6988 1.55832 11.6268 1.53378 11.559 1.50014C11.4969 1.47193 11.4374 1.43847 11.381 1.40014C11.2851 1.33774 11.1974 1.26349 11.12 1.17914C11.0565 1.12048 10.9992 1.05548 10.949 0.985141ZM19 17.0161H0V13.0161H1V8.01614L4 6.01614V8.01614L8 5.01614V8.01614L12 4.01614V11.0161L13 10.0161L14 2.01614H16L17 10.0161L18 11.0161V13.0161H19V17.0161ZM6 12.0161H3V14.0161H6V12.0161ZM11 12.0161H8V14.0161H11V12.0161ZM16 12.0161H13V14.0161H16V12.0161Z" fill="#4F4F4F"/>
</svg>
