<svg width="19" height="18" viewBox="0 0 19 18" fill="none" xmlns="http://www.w3.org/2000/svg">
<path fill-rule="evenodd" clip-rule="evenodd" d="M18.013 8.999L16.471 6.989L16.816 4.496L14.462 3.563L13.529 1.212L11.029 1.557L9.004 1.56403e-07L6.99503 1.54L4.504 1.196L3.57102 3.547L1.21701 4.479L1.56198 6.972L-2.83203e-05 8.999L1.54202 11.006L1.19699 13.499L3.551 14.431L4.48398 16.782L6.98398 16.438L8.99301 17.978L11.001 16.438L13.501 16.783L14.435 14.432L16.788 13.479L16.43 10.989L18.013 8.999ZM8.27298 11.918L5.27298 9.445L5.92203 8.655L8.15402 10.479L11.968 6.079L12.739 6.748L8.27298 11.918Z" fill="#4F4F4F"/>
</svg>
