<svg width="14" height="11" viewBox="0 0 14 11" version="1.1" xmlns="http://www.w3.org/2000/svg" xmlns:xlink="http://www.w3.org/1999/xlink">
<g id="Canvas" fill="none">
<g id="check">
<path d="M 4.75781 11.7539C 4.86719 11.918 5.03125 11.9727 5.25 11.9727C 5.44141 11.9727 5.60547 11.918 5.74219 11.7539L 13.8086 3.71484C 13.918 3.60547 14 3.44141 14 3.22266C 14 3.03125 13.918 2.86719 13.8086 2.73047L 12.7969 1.74609C 12.6602 1.60938 12.4961 1.52734 12.3047 1.52734C 12.1133 1.52734 11.9492 1.60938 11.8125 1.74609L 5.25 8.30859L 2.1875 5.24609C 2.02344 5.10938 1.85938 5.02734 1.66797 5.02734C 1.47656 5.02734 1.3125 5.10938 1.20312 5.24609L 0.191406 6.23047C 0.0546875 6.36719 0 6.53125 0 6.72266C 0 6.94141 0.0546875 7.10547 0.191406 7.21484L 4.75781 11.7539Z" transform="translate(0 -1)" fill="#041647"/>
</g>
</g>
</svg>
