<svg xmlns="http://www.w3.org/2000/svg" viewBox="0 0 258.34 22.11"><defs><style>.cls-1{fill-rule:evenodd;fill:#fff}</style></defs><title>Original FM Logo</title><g id="Layer_2" data-name="Layer 2"><g id="Layer_1-2" data-name="Layer 1"><path class="cls-1" d="M257.78,4.4h-7V21.23a.51.51,0,0,1-.56.56h-3.52a.51.51,0,0,1-.56-.56V4.4h-7a.51.51,0,0,1-.56-.56V.56a.51.51,0,0,1,.56-.56h18.55a.51.51,0,0,1,.56.56V3.84A.51.51,0,0,1,257.78,4.4ZM231.91,21.79a1.22,1.22,0,0,1-1-.4l-7.32-9.12-2.36,1.84v7.12a.51.51,0,0,1-.56.56h-3.52a.51.51,0,0,1-.56-.56V.56a.51.51,0,0,1,.56-.56h3.52a.51.51,0,0,1,.56.56V9.2l9-8.88a1.61,1.61,0,0,1,1-.32h4.88c.36,0,.48.32.2.6l-9.56,9L237,21.19c.28.28.12.6-.24.6Zm-18.59-.56a.37.37,0,0,1-.36.56H209a.76.76,0,0,1-.72-.4L205.64,16a4.14,4.14,0,0,1-.64,0h-5.6v5.24a.51.51,0,0,1-.56.56h-3.52a.51.51,0,0,1-.56-.56V.56a.51.51,0,0,1,.56-.56h9.84c4.84,0,8.56,3.44,8.56,8a7.7,7.7,0,0,1-3.84,6.68ZM205.16,4.4h-5.76v7.2h5.76A3.56,3.56,0,0,0,209.08,8C209.08,5.92,207.68,4.4,205.16,4.4Zm-16.7,17.39a.87.87,0,0,1-.84-.56l-1.52-3.76H175.23l-1.52,3.84a.68.68,0,0,1-.68.48h-4c-.4,0-.52-.2-.4-.56L178.11.32a.5.5,0,0,1,.52-.32h4.56a.5.5,0,0,1,.52.32l9,20.83a.46.46,0,0,1-.44.64ZM181,4.32h-.44l-3.64,9h7.6ZM164.51,21.79H161a.51.51,0,0,1-.56-.56V13.31l.2-6-.24,0-3.2,8.24-2.48,5.84a.65.65,0,0,1-.64.4h-2.72a.65.65,0,0,1-.64-.4l-2.36-5.84-3.28-8.28-.24,0,.2,6v7.92a.51.51,0,0,1-.56.56h-3.36a.51.51,0,0,1-.56-.56V.56a.51.51,0,0,1,.56-.56h4.68a.69.69,0,0,1,.64.44l3.2,7.32,3.2,8.08H153l3.16-8.08,3-7.32a.72.72,0,0,1,.72-.44h4.6a.51.51,0,0,1,.56.56V21.23A.51.51,0,0,1,164.51,21.79Zm-39.66,0H108.33a.51.51,0,0,1-.56-.56V.56a.57.57,0,0,1,.56-.56h16.19a.51.51,0,0,1,.56.56v3.2a.51.51,0,0,1-.56.56H112.41V8.4H123a.51.51,0,0,1,.56.56v3.2a.51.51,0,0,1-.56.56H112.41v4.72h12.44a.51.51,0,0,1,.56.56v3.24A.51.51,0,0,1,124.84,21.79Zm-20.35-.56a.37.37,0,0,1-.36.56h-3.92a.76.76,0,0,1-.72-.4L96.82,16a4.14,4.14,0,0,1-.64,0h-5.6v5.24a.51.51,0,0,1-.56.56H86.5a.51.51,0,0,1-.56-.56V.56A.51.51,0,0,1,86.5,0h9.84c4.84,0,8.56,3.44,8.56,8a7.7,7.7,0,0,1-3.84,6.68ZM96.34,4.4H90.58v7.2h5.76A3.56,3.56,0,0,0,100.26,8C100.26,5.92,98.86,4.4,96.34,4.4ZM72.86,22.11c-6,0-9.76-4.28-9.76-9.92V.56A.51.51,0,0,1,63.66,0h3.52a.51.51,0,0,1,.56.56v11.6c0,3.24,1.8,5.56,5.12,5.56S78,15.51,78,12.16V.56A.51.51,0,0,1,78.58,0H82.1a.51.51,0,0,1,.56.56V12.2C82.66,17.83,78.9,22.11,72.86,22.11ZM59.83,4.4h-7V21.23a.51.51,0,0,1-.56.56H48.79a.51.51,0,0,1-.56-.56V4.4h-7a.51.51,0,0,1-.56-.56V.56A.51.51,0,0,1,41.27,0H59.83a.51.51,0,0,1,.56.56V3.84A.51.51,0,0,1,59.83,4.4ZM28.88,22.11c-6,0-9.76-4.28-9.76-9.92V.56A.51.51,0,0,1,19.68,0H23.2a.51.51,0,0,1,.56.56v11.6c0,3.24,1.8,5.56,5.12,5.56S34,15.51,34,12.16V.56A.51.51,0,0,1,34.6,0h3.52a.51.51,0,0,1,.56.56V12.2C38.68,17.83,34.92,22.11,28.88,22.11ZM16.47,4.4H4.64V8.56H15.35a.51.51,0,0,1,.56.56V12.4a.51.51,0,0,1-.56.56H4.64v8.28a.51.51,0,0,1-.56.56H.56A.51.51,0,0,1,0,21.23V.56A.51.51,0,0,1,.56,0H16.47A.51.51,0,0,1,17,.56V3.84A.51.51,0,0,1,16.47,4.4Z"/></g></g></svg>
