<svg width="41" height="41" viewBox="0 0 41 41" version="1.1" xmlns="http://www.w3.org/2000/svg" xmlns:xlink="http://www.w3.org/1999/xlink">
<g id="Canvas" fill="none">
<g id="document-icon-320">
<path fill-rule="evenodd" clip-rule="evenodd" d="M 2 2L 2 39L 29 39L 29 9C 29 8.91989 28.9904 8.88342 28.9881 8.8752C 28.986 8.86772 28.9833 8.85949 28.9725 8.84149C 28.9592 8.81934 28.9308 8.77778 28.8675 8.70606C 28.7985 8.62784 28.7181 8.54653 28.5858 8.41421L 22.5858 2.41421C 22.3576 2.18604 22.3322 2.17525 22.2808 2.15341C 22.2788 2.15256 22.2768 2.15169 22.2747 2.15079C 22.1786 2.10961 21.8521 2 21 2L 2 2ZM 2 41C 0.5 41 0 40.5 0 39L 0 2C 0 0.5 0.5 0 2 0L 21 0C 23 0 23.5 0.5 24 1L 30 7C 30.5 7.5 31 8 31 9L 31 39C 31 40.5 30.5 41 29 41L 2 41Z" fill="url(#paint0_linear)"/>
<path fill-rule="evenodd" clip-rule="evenodd" d="M 22 7L 22 1L 24 2L 24 7C 24 7.5 24.5 8 25 8L 30 8L 30 10L 25 10C 23 10 22 9 22 7Z" fill="url(#paint1_linear)"/>
<path fill-rule="evenodd" clip-rule="evenodd" d="M 14.7071 7.29289C 15.0976 7.68342 15.0976 8.31658 14.7071 8.70711L 9.20711 14.2071C 8.81658 14.5976 8.18342 14.5976 7.79289 14.2071L 5.29289 11.7071C 4.90237 11.3166 4.90237 10.6834 5.29289 10.2929C 5.68342 9.90237 6.31658 9.90237 6.70711 10.2929L 8.5 12.0858L 13.2929 7.29289C 13.6834 6.90237 14.3166 6.90237 14.7071 7.29289Z" fill="url(#paint2_linear)"/>
<path fill-rule="evenodd" clip-rule="evenodd" d="M 14.7071 16.2929C 15.0976 16.6834 15.0976 17.3166 14.7071 17.7071L 9.20711 23.2071C 8.81658 23.5976 8.18342 23.5976 7.79289 23.2071L 5.29289 20.7071C 4.90237 20.3166 4.90237 19.6834 5.29289 19.2929C 5.68342 18.9024 6.31658 18.9024 6.70711 19.2929L 8.5 21.0858L 13.2929 16.2929C 13.6834 15.9024 14.3166 15.9024 14.7071 16.2929Z" fill="url(#paint3_linear)"/>
<path fill-rule="evenodd" clip-rule="evenodd" d="M 14.7071 25.2929C 15.0976 25.6834 15.0976 26.3166 14.7071 26.7071L 9.20711 32.2071C 8.81658 32.5976 8.18342 32.5976 7.79289 32.2071L 5.29289 29.7071C 4.90237 29.3166 4.90237 28.6834 5.29289 28.2929C 5.68342 27.9024 6.31658 27.9024 6.70711 28.2929L 8.5 30.0858L 13.2929 25.2929C 13.6834 24.9024 14.3166 24.9024 14.7071 25.2929Z" fill="url(#paint4_linear)"/>
<path d="M 17 14C 17 13.4477 17.4477 13 18 13L 25 13C 25.5523 13 26 13.4477 26 14C 26 14.5523 25.5523 15 25 15L 18 15C 17.4477 15 17 14.5523 17 14Z" fill="url(#paint5_linear)"/>
<path d="M 17 23C 17 22.4477 17.4477 22 18 22L 25 22C 25.5523 22 26 22.4477 26 23C 26 23.5523 25.5523 24 25 24L 18 24C 17.4477 24 17 23.5523 17 23Z" fill="url(#paint6_linear)"/>
<path d="M 17 32C 17 31.4477 17.4477 31 18 31L 25 31C 25.5523 31 26 31.4477 26 32C 26 32.5523 25.5523 33 25 33L 18 33C 17.4477 33 17 32.5523 17 32Z" fill="url(#paint7_linear)"/>
<path fill-rule="evenodd" clip-rule="evenodd" d="M 35 12L 35 31C 35 31.9419 35.5187 33.3041 36.3123 34.5512C 36.5474 34.9207 36.7836 35.2432 37 35.5056C 37.2164 35.2432 37.4526 34.9207 37.6877 34.5512C 38.4813 33.3041 39 31.9419 39 31L 39 12C 39 10.7648 38.0628 10 37 10C 35.9372 10 35 10.7648 35 12ZM 36.371 36.1441C 36.3485 36.1587 36.3521 36.1534 36.3793 36.1385C 36.3758 36.1409 36.3731 36.1428 36.371 36.1441ZM 37.6207 36.1385C 37.6479 36.1534 37.6515 36.1587 37.629 36.1441C 37.6269 36.1428 37.6242 36.1409 37.6207 36.1385ZM 33 31L 33 12C 33 9.5 35 8 37 8C 39 8 41 9.5 41 12L 41 31C 41 34 38 38 37 38C 36 38 33 34 33 31Z" fill="url(#paint8_linear)"/>
<path d="M 34 12L 40 12L 40 14L 34 14L 34 12Z" fill="url(#paint9_linear)"/>
<path d="M 34 17L 40 17L 40 19L 34 19L 34 17Z" fill="url(#paint10_linear)"/>
<path d="M 34 30L 40 30L 40 32L 34 32L 34 30Z" fill="url(#paint11_linear)"/>
</g>
</g>
<defs>

<linearGradient id="paint0_linear" x2="1" gradientUnits="userSpaceOnUse" gradientTransform="matrix(25 41 -41 25 26 -12.5)">
<stop stop-color="#FFCC00"/>
<stop offset="1" stop-color="#ED5F00"/>
</linearGradient>
<linearGradient id="paint1_linear" x2="1" gradientUnits="userSpaceOnUse" gradientTransform="matrix(25 41 -41 25 26 -12.5)">
<stop stop-color="#FFCC00"/>
<stop offset="1" stop-color="#ED5F00"/>
</linearGradient>
<linearGradient id="paint2_linear" x2="1" gradientUnits="userSpaceOnUse" gradientTransform="matrix(25 41 -41 25 26 -12.5)">
<stop stop-color="#FFCC00"/>
<stop offset="1" stop-color="#ED5F00"/>
</linearGradient>
<linearGradient id="paint3_linear" x2="1" gradientUnits="userSpaceOnUse" gradientTransform="matrix(25 41 -41 25 26 -12.5)">
<stop stop-color="#FFCC00"/>
<stop offset="1" stop-color="#ED5F00"/>
</linearGradient>
<linearGradient id="paint4_linear" x2="1" gradientUnits="userSpaceOnUse" gradientTransform="matrix(25 41 -41 25 26 -12.5)">
<stop stop-color="#FFCC00"/>
<stop offset="1" stop-color="#ED5F00"/>
</linearGradient>
<linearGradient id="paint5_linear" x2="1" gradientUnits="userSpaceOnUse" gradientTransform="matrix(25 41 -41 25 26 -12.5)">
<stop stop-color="#FFCC00"/>
<stop offset="1" stop-color="#ED5F00"/>
</linearGradient>
<linearGradient id="paint6_linear" x2="1" gradientUnits="userSpaceOnUse" gradientTransform="matrix(25 41 -41 25 26 -12.5)">
<stop stop-color="#FFCC00"/>
<stop offset="1" stop-color="#ED5F00"/>
</linearGradient>
<linearGradient id="paint7_linear" x2="1" gradientUnits="userSpaceOnUse" gradientTransform="matrix(25 41 -41 25 26 -12.5)">
<stop stop-color="#FFCC00"/>
<stop offset="1" stop-color="#ED5F00"/>
</linearGradient>
<linearGradient id="paint8_linear" x2="1" gradientUnits="userSpaceOnUse" gradientTransform="matrix(25 41 -41 25 26 -12.5)">
<stop stop-color="#FFCC00"/>
<stop offset="1" stop-color="#ED5F00"/>
</linearGradient>
<linearGradient id="paint9_linear" x2="1" gradientUnits="userSpaceOnUse" gradientTransform="matrix(25 41 -41 25 26 -12.5)">
<stop stop-color="#FFCC00"/>
<stop offset="1" stop-color="#ED5F00"/>
</linearGradient>
<linearGradient id="paint10_linear" x2="1" gradientUnits="userSpaceOnUse" gradientTransform="matrix(25 41 -41 25 26 -12.5)">
<stop stop-color="#FFCC00"/>
<stop offset="1" stop-color="#ED5F00"/>
</linearGradient>
<linearGradient id="paint11_linear" x2="1" gradientUnits="userSpaceOnUse" gradientTransform="matrix(25 41 -41 25 26 -12.5)">
<stop stop-color="#FFCC00"/>
<stop offset="1" stop-color="#ED5F00"/>
</linearGradient>

</defs>
</svg>

